<svg width="2048" height="2048" viewBox="0 0 2048 2048" xmlns="http://www.w3.org/2000/svg">
  <!-- Aeonmi Quantum Workflow Splash Screen -->
  <defs>
    <linearGradient id="quantumGradient" x1="0%" y1="0%" x2="100%" y2="100%">
      <stop offset="0%" style="stop-color:#00FFFF;stop-opacity:1" />
      <stop offset="50%" style="stop-color:#FF6B00;stop-opacity:1" />
      <stop offset="100%" style="stop-color:#00FF00;stop-opacity:1" />
    </linearGradient>
    <radialGradient id="bgGradient" cx="50%" cy="50%" r="50%">
      <stop offset="0%" style="stop-color:#0A0A0A;stop-opacity:1" />
      <stop offset="100%" style="stop-color:#1A1A1A;stop-opacity:1" />
    </radialGradient>
  </defs>

  <!-- Background -->
  <rect width="2048" height="2048" fill="url(#bgGradient)"/>

  <!-- Quantum Circuit Grid Background -->
  <g stroke="#333" stroke-width="2" opacity="0.2">
    <pattern id="circuitGrid" x="0" y="0" width="256" height="256" patternUnits="userSpaceOnUse">
      <line x1="128" y1="0" x2="128" y2="256"/>
      <line x1="0" y1="128" x2="256" y2="128"/>
      <circle cx="128" cy="128" r="3" fill="#00FFFF" opacity="0.4"/>
    </pattern>
    <rect width="2048" height="2048" fill="url(#circuitGrid)"/>
  </g>

  <!-- Central Logo Area -->
  <g transform="translate(1024, 1024)">
    <!-- Outer quantum rings -->
    <circle cx="0" cy="0" r="300" fill="none" stroke="url(#quantumGradient)" stroke-width="6" opacity="0.6"/>
    <circle cx="0" cy="0" r="250" fill="none" stroke="#00FFFF" stroke-width="4" opacity="0.4"/>
    <circle cx="0" cy="0" r="200" fill="none" stroke="#FF6B00" stroke-width="3" opacity="0.5"/>

    <!-- Inner quantum core -->
    <circle cx="0" cy="0" r="160" fill="#0A0A0A" stroke="#00FFFF" stroke-width="4"/>

    <!-- Main Æ Symbol -->
    <text x="0" y="-30" text-anchor="middle" fill="url(#quantumGradient)" font-family="Arial, sans-serif" font-size="200" font-weight="bold">Æ</text>

    <!-- Q.U.B.E. Text -->
    <text x="0" y="60" text-anchor="middle" fill="#FFFFFF" font-family="Arial, sans-serif" font-size="48" font-weight="bold">Q.U.B.E.</text>

    <!-- Quantum Workflow Subtitle -->
    <text x="0" y="110" text-anchor="middle" fill="#888" font-family="Arial, sans-serif" font-size="28">QUANTUM WORKFLOW</text>

    <!-- Quantum Superposition Symbol -->
    <text x="0" y="-120" text-anchor="middle" fill="#00FFFF" font-family="Arial, sans-serif" font-size="48" font-weight="bold">|0⟩ + |1⟩</text>

    <!-- Quantum Gates Display -->
    <g transform="translate(0, 180)">
      <!-- Gate symbols -->
      <g fill="none" stroke="#00FFFF" stroke-width="4">
        <rect x="-120" y="-20" width="40" height="40" rx="6"/>
        <text x="-100" y="8" text-anchor="middle" fill="#00FFFF" font-family="Arial, sans-serif" font-size="24" font-weight="bold">H</text>

        <rect x="-40" y="-20" width="40" height="40" rx="6"/>
        <text x="-20" y="8" text-anchor="middle" fill="#FF6B00" font-family="Arial, sans-serif" font-size="24" font-weight="bold">X</text>

        <rect x="40" y="-20" width="40" height="40" rx="6"/>
        <text x="60" y="8" text-anchor="middle" fill="#00FF00" font-family="Arial, sans-serif" font-size="24" font-weight="bold">Y</text>

        <rect x="120" y="-20" width="40" height="40" rx="6"/>
        <text x="140" y="8" text-anchor="middle" fill="#00FFFF" font-family="Arial, sans-serif" font-size="24" font-weight="bold">Z</text>
      </g>
    </g>

    <!-- Quantum Wave Functions -->
    <g opacity="0.7">
      <path d="M -400 -200 Q -300 -250 -100 -200 T 200 -200" fill="none" stroke="#00FFFF" stroke-width="6"/>
      <path d="M -400 -150 Q -300 -100 -100 -150 T 200 -150" fill="none" stroke="#FF6B00" stroke-width="5"/>
      <path d="M -400 -100 Q -300 -150 -100 -100 T 200 -100" fill="none" stroke="#00FF00" stroke-width="4"/>
      <path d="M -400 100 Q -300 150 -100 100 T 200 100" fill="none" stroke="#00FFFF" stroke-width="6"/>
      <path d="M -400 150 Q -300 100 -100 150 T 200 150" fill="none" stroke="#FF6B00" stroke-width="5"/>
      <path d="M -400 200 Q -300 250 -100 200 T 200 200" fill="none" stroke="#00FF00" stroke-width="4"/>
    </g>

    <!-- Loading Animation Dots -->
    <g transform="translate(0, 300)">
      <circle cx="-60" cy="0" r="8" fill="#00FFFF" opacity="0.9"/>
      <circle cx="-20" cy="0" r="8" fill="#FF6B00" opacity="0.7"/>
      <circle cx="20" cy="0" r="8" fill="#00FF00" opacity="0.8"/>
      <circle cx="60" cy="0" r="8" fill="#00FFFF" opacity="0.6"/>
    </g>
  </g>

  <!-- Loading Text -->
  <text x="1024" y="1600" text-anchor="middle" fill="#00FFFF" font-family="Arial, sans-serif" font-size="36" font-weight="bold">Initializing Quantum Engine...</text>

  <!-- Version Info -->
  <text x="1024" y="1700" text-anchor="middle" fill="#666" font-family="Arial, sans-serif" font-size="24">v1.0.0</text>

  <!-- Quantum Particles Animation -->
  <g opacity="0.8">
    <circle cx="200" cy="200" r="12" fill="#00FFFF"/>
    <circle cx="1848" cy="200" r="10" fill="#FF6B00"/>
    <circle cx="200" cy="1848" r="14" fill="#00FF00"/>
    <circle cx="1848" cy="1848" r="11" fill="#00FFFF"/>
    <circle cx="1024" cy="300" r="8" fill="#FF6B00"/>
    <circle cx="1024" cy="1748" r="13" fill="#00FF00"/>
    <circle cx="300" cy="1024" r="9" fill="#00FFFF"/>
    <circle cx="1748" cy="1024" r="10" fill="#FF6B00"/>
  </g>
</svg>